# xmcd CD database file
#
# Track frame offsets:
#	150
#	18125
#	31375
#	42700
#	53925
#	73650
#	90125
#	100900
#	116987
#	126750
#	138787
#	150975
#	162387
#	173625
#	185787
#	199175
#	210275
#	229850
#
# Disc length: 3446 seconds
#
# Revision: 0
# Processed by: cddbd v1.5.2PL0 Copyright (c) Steve Scherf et al.
# Submitted via: ACXtractor (MTCDDB.DLL V2003.12.21)
#
DISCID=f00d7412
DTITLE=Buddy Williams - Our Buddy
DYEAR=1955
DGENRE=Country
TTITLE0=Title 01 I Like Country Music
TTITLE1=Title 02 Sulva Bay
TTITLE2=Title 03 Music in my Pony's feet
TTITLE3=Title 04 Where the White Faced Cattle Roam
TTITLE4=Title 05 Camooweal
TTITLE5=Title 06 Aussie on my Mind
TTITLE6=Title 07 The Overlander Trail
TTITLE7=Title 08 By a Fire of Gidgee Coal 
TTITLE8=Title 09 Wingie the Railway Cop
TTITLE9=Title 10 Highway Man
TTITLE10=Title 11 big Bannana Land
TTITLE11=Title 12 Back of Bourke
TTITLE12=Title 13 Back to those rolling Plains
TTITLE13=Title 14 Over the Hilltop and Hollows
TTITLE14=Title 15 Little Red Bonnet
TTITLE15=Title 16 Wild river
TTITLE16=Title 17 Last of the Poineers
TTITLE17=Title 18 Tribute to Budy Williams
EXTD=ID3G:   2 YEAR: 1955
EXTT0=
EXTT1=
EXTT2=
EXTT3=
EXTT4=
EXTT5=
EXTT6=
EXTT7=
EXTT8=
EXTT9=
EXTT10=
EXTT11=
EXTT12=
EXTT13=
EXTT14=
EXTT15=
EXTT16=
EXTT17=
PLAYORDER=
